{
  "accessors": [
    {
      "bufferView": 2,
      "componentType": 5126,
      "count": 42695,
      "max": [
        4.4010400772094727,
        4.0639300346374512,
        6.5560097694396973
      ],
      "min": [
        -4.4010400772094727,
        -4.3559098243713379,
        -0.24587999284267426
      ],
      "type": "VEC3"
    },
    {
      "bufferView": 2,
      "byteOffset": 512340,
      "componentType": 5126,
      "count": 42695,
      "max": [
        0.99987941980361938,
        1,
        0.99993455410003662
      ],
      "min": [
        -0.99987941980361938,
        -0.99997073411941528,
        -0.99999994039535522
      ],
      "type": "VEC3"
    },
    {
      "bufferView": 3,
      "componentType": 5126,
      "count": 42695,
      "max": [
        0.99996936321258545,
        0.99999481439590454,
        1,
        1
      ],
      "min": [
        -0.99996930360794067,
        -1,
        -0.99999535083770752,
        -1
      ],
      "type": "VEC4"
    },
    {
      "bufferView": 2,
      "byteOffset": 1024680,
      "componentType": 5126,
      "count": 42695,
      "max": [
        1,
        1,
        1
      ],
      "min": [
        1,
        1,
        1
      ],
      "type": "VEC3"
    },
    {
      "bufferView": 1,
      "componentType": 5126,
      "count": 42695,
      "max": [
        0.99962002038955688,
        0.9882500171661377
      ],
      "min": [
        0.00044999999227002263,
        0.0003800000122282654
      ],
      "type": "VEC2"
    },
    {
      "bufferView": 0,
      "componentType": 5125,
      "count": 241920,
      "max": [
        42694
      ],
      "min": [
        0
      ],
      "type": "SCALAR"
    }
  ],
  "asset": {
    "extras": {
      "author": "Katerina Novakova (https://sketchfab.com/KaterinaNovakova)",
      "license": "CC-BY-SA-4.0 (http://creativecommons.org/licenses/by-sa/4.0/)",
      "source": "https://sketchfab.com/models/3d7364edd4e2406d87850524dcd5499b",
      "title": "Pokemon - Lapras"
    },
    "generator": "Sketchfab-3.18.7",
    "version": "2.0"
  },
  "bufferViews": [
    {
      "buffer": 0,
      "byteLength": 967680,
      "byteOffset": 0,
      "name": "floatBufferViews",
      "target": 34963
    },
    {
      "buffer": 0,
      "byteLength": 341560,
      "byteOffset": 967680,
      "byteStride": 8,
      "name": "floatBufferViews",
      "target": 34962
    },
    {
      "buffer": 0,
      "byteLength": 1537020,
      "byteOffset": 1309240,
      "byteStride": 12,
      "name": "floatBufferViews",
      "target": 34962
    },
    {
      "buffer": 0,
      "byteLength": 683120,
      "byteOffset": 2846260,
      "byteStride": 16,
      "name": "floatBufferViews",
      "target": 34962
    }
  ],
  "buffers": [
    {
      "byteLength": 3529380,
      "uri": "lapras.bin"
    }
  ],
  "images": [
    {
      "uri": "textures/Body_baseColor.png"
    }
  ],
  "materials": [
    {
      "doubleSided": true,
      "emissiveFactor": [
        0,
        0,
        0
      ],
      "name": "Body",
      "pbrMetallicRoughness": {
        "baseColorFactor": [
          1,
          1,
          1,
          1
        ],
        "baseColorTexture": {
          "index": 0,
          "texCoord": 0
        },
        "metallicFactor": 0,
        "roughnessFactor": 0.59999999999999998
      }
    }
  ],
  "meshes": [
    {
      "name": "Lapras_0",
      "primitives": [
        {
          "attributes": {
            "COLOR_0": 3,
            "NORMAL": 1,
            "POSITION": 0,
            "TANGENT": 2,
            "TEXCOORD_0": 4
          },
          "indices": 5,
          "material": 0,
          "mode": 4
        }
      ]
    }
  ],
  "nodes": [
    {
      "children": [
        1
      ],
      "name": "RootNode (gltf orientation matrix)",
      "rotation": [
        -0.70710678118654746,
        -0,
        -0,
        0.70710678118654757
      ]
    },
    {
      "children": [
        2
      ],
      "name": "RootNode (model correction matrix)"
    },
    {
      "children": [
        3,
        5
      ],
      "name": "Root"
    },
    {
      "children": [
        4
      ],
      "matrix": [
        -0.13559000000000002,
        0.90668000000000004,
        0.39943000000000006,
        0,
        -0.83925000000000005,
        -0.31938000000000011,
        0.44006000000000006,
        0,
        0.52656999999999998,
        -0.27555000000000002,
        0.80424000000000007,
        0,
        4.0762500000000008,
        -10.48742,
        19.275789999999997,
        1
      ],
      "name": "Sun"
    },
    {
      "name": "Sun"
    },
    {
      "children": [
        6
      ],
      "name": "Lapras"
    },
    {
      "mesh": 0,
      "name": "Lapras_0"
    }
  ],
  "samplers": [
    {
      "magFilter": 9729,
      "minFilter": 9729,
      "wrapS": 10497,
      "wrapT": 10497
    }
  ],
  "scene": 0,
  "scenes": [
    {
      "name": "OSG_Scene",
      "nodes": [
        0
      ]
    }
  ],
  "textures": [
    {
      "sampler": 0,
      "source": 0
    }
  ]
}

