{
  "accessors": [
    {
      "bufferView": 2,
      "componentType": 5126,
      "count": 53400,
      "max": [
        1.7246899604797363,
        3.2791900634765625,
        4.4585599899291992
      ],
      "min": [
        -1.7246899604797363,
        -1.7368700504302979,
        0.0014799999771639705
      ],
      "type": "VEC3"
    },
    {
      "bufferView": 2,
      "byteOffset": 640800,
      "componentType": 5126,
      "count": 53400,
      "max": [
        0.99998456239700317,
        0.99989026784896851,
        0.9999309778213501
      ],
      "min": [
        -0.99999135732650757,
        -0.99998611211776733,
        -0.99999839067459106
      ],
      "type": "VEC3"
    },
    {
      "bufferView": 3,
      "componentType": 5126,
      "count": 53400,
      "max": [
        1,
        0.99999415874481201,
        0.99889516830444336,
        1
      ],
      "min": [
        -0.99993646144866943,
        -0.99997860193252563,
        -0.99984782934188843,
        -1
      ],
      "type": "VEC4"
    },
    {
      "bufferView": 1,
      "componentType": 5126,
      "count": 53400,
      "max": [
        0.99822998046875,
        0.99966001510620117
      ],
      "min": [
        0.00033999999868683517,
        0.00033999999868683517
      ],
      "type": "VEC2"
    },
    {
      "bufferView": 0,
      "componentType": 5125,
      "count": 306576,
      "max": [
        53399
      ],
      "min": [
        0
      ],
      "type": "SCALAR"
    }
  ],
  "asset": {
    "extras": {
      "author": "Katerina Novakova (https://sketchfab.com/KaterinaNovakova)",
      "license": "CC-BY-SA-4.0 (http://creativecommons.org/licenses/by-sa/4.0/)",
      "source": "https://sketchfab.com/models/1f18443b6a7a41b38a9be521731040a6",
      "title": "Pokemon - Charmander"
    },
    "generator": "Sketchfab-3.18.7",
    "version": "2.0"
  },
  "bufferViews": [
    {
      "buffer": 0,
      "byteLength": 1226304,
      "byteOffset": 0,
      "name": "floatBufferViews",
      "target": 34963
    },
    {
      "buffer": 0,
      "byteLength": 427200,
      "byteOffset": 1226304,
      "byteStride": 8,
      "name": "floatBufferViews",
      "target": 34962
    },
    {
      "buffer": 0,
      "byteLength": 1281600,
      "byteOffset": 1653504,
      "byteStride": 12,
      "name": "floatBufferViews",
      "target": 34962
    },
    {
      "buffer": 0,
      "byteLength": 854400,
      "byteOffset": 2935104,
      "byteStride": 16,
      "name": "floatBufferViews",
      "target": 34962
    }
  ],
  "buffers": [
    {
      "byteLength": 3789504,
      "uri": "charmander.bin"
    }
  ],
  "images": [
    {
      "uri": "textures/body_baseColor.png"
    }
  ],
  "materials": [
    {
      "doubleSided": true,
      "emissiveFactor": [
        0,
        0,
        0
      ],
      "name": "body",
      "pbrMetallicRoughness": {
        "baseColorFactor": [
          1,
          1,
          1,
          1
        ],
        "baseColorTexture": {
          "index": 0,
          "texCoord": 0
        },
        "metallicFactor": 0,
        "roughnessFactor": 0.59999999999999998
      }
    }
  ],
  "meshes": [
    {
      "name": "Charmander_0",
      "primitives": [
        {
          "attributes": {
            "NORMAL": 1,
            "POSITION": 0,
            "TANGENT": 2,
            "TEXCOORD_0": 3
          },
          "indices": 4,
          "material": 0,
          "mode": 4
        }
      ]
    }
  ],
  "nodes": [
    {
      "children": [
        1
      ],
      "name": "RootNode (gltf orientation matrix)",
      "rotation": [
        -0.70710678118654746,
        -0,
        -0,
        0.70710678118654757
      ]
    },
    {
      "children": [
        2
      ],
      "name": "RootNode (model correction matrix)"
    },
    {
      "children": [
        3
      ],
      "name": "Root"
    },
    {
      "children": [
        4
      ],
      "name": "Charmander"
    },
    {
      "mesh": 0,
      "name": "Charmander_0"
    }
  ],
  "samplers": [
    {
      "magFilter": 9729,
      "minFilter": 9987,
      "wrapS": 10497,
      "wrapT": 10497
    }
  ],
  "scene": 0,
  "scenes": [
    {
      "name": "OSG_Scene",
      "nodes": [
        0
      ]
    }
  ],
  "textures": [
    {
      "sampler": 0,
      "source": 0
    }
  ]
}

