{
  "accessors": [
    {
      "bufferView": 1,
      "componentType": 5126,
      "count": 5048,
      "max": [
        4013.597900390625,
        3999.491943359375,
        7966.4990234375
      ],
      "min": [
        -3988.384033203125,
        -3500.405029296875,
        2491.89501953125
      ],
      "type": "VEC3"
    },
    {
      "bufferView": 1,
      "byteOffset": 60576,
      "componentType": 5126,
      "count": 5048,
      "max": [
        0.99672359228134155,
        0.99992388486862183,
        0.99996459484100342
      ],
      "min": [
        -0.99672359228134155,
        -0.99992388486862183,
        -0.99996459484100342
      ],
      "type": "VEC3"
    },
    {
      "bufferView": 0,
      "componentType": 5125,
      "count": 29544,
      "max": [
        5047
      ],
      "min": [
        0
      ],
      "type": "SCALAR"
    },
    {
      "bufferView": 1,
      "byteOffset": 121152,
      "componentType": 5126,
      "count": 5048,
      "max": [
        4039.01708984375,
        3516.555908203125,
        5408.576171875
      ],
      "min": [
        -3962.965087890625,
        -4031.51611328125,
        -64.824409484863281
      ],
      "type": "VEC3"
    },
    {
      "bufferView": 1,
      "byteOffset": 181728,
      "componentType": 5126,
      "count": 5048,
      "max": [
        0.99672359228134155,
        0.99992388486862183,
        0.99996459484100342
      ],
      "min": [
        -0.99672359228134155,
        -0.99992388486862183,
        -0.99996459484100342
      ],
      "type": "VEC3"
    },
    {
      "bufferView": 0,
      "byteOffset": 118176,
      "componentType": 5125,
      "count": 29544,
      "max": [
        5047
      ],
      "min": [
        0
      ],
      "type": "SCALAR"
    },
    {
      "bufferView": 1,
      "byteOffset": 242304,
      "componentType": 5126,
      "count": 200,
      "max": [
        1434.1689453125,
        3299.1640625,
        3457.93701171875
      ],
      "min": [
        -353.78768920898438,
        2508.804931640625,
        1803.4940185546875
      ],
      "type": "VEC3"
    },
    {
      "bufferView": 1,
      "byteOffset": 244704,
      "componentType": 5126,
      "count": 200,
      "max": [
        0.15863549709320068,
        0.89966660737991333,
        0.40673670172691345
      ],
      "min": [
        -0.15863549709320068,
        -0.89966660737991333,
        -0.40673670172691345
      ],
      "type": "VEC3"
    },
    {
      "bufferView": 0,
      "byteOffset": 236352,
      "componentType": 5125,
      "count": 588,
      "max": [
        199
      ],
      "min": [
        0
      ],
      "type": "SCALAR"
    },
    {
      "bufferView": 1,
      "byteOffset": 247104,
      "componentType": 5126,
      "count": 400,
      "max": [
        1434.1689453125,
        3299.1640625,
        6381.95703125
      ],
      "min": [
        -1494.2149658203125,
        -3958.876953125,
        1803.4940185546875
      ],
      "type": "VEC3"
    },
    {
      "bufferView": 1,
      "byteOffset": 251904,
      "componentType": 5126,
      "count": 400,
      "max": [
        0.98726308345794678,
        0.43641525506973267,
        0.91353988647460938
      ],
      "min": [
        -0.98726308345794678,
        -0.43641525506973267,
        -0.91353988647460938
      ],
      "type": "VEC3"
    },
    {
      "bufferView": 0,
      "byteOffset": 238704,
      "componentType": 5125,
      "count": 1200,
      "max": [
        399
      ],
      "min": [
        0
      ],
      "type": "SCALAR"
    },
    {
      "bufferView": 1,
      "byteOffset": 256704,
      "componentType": 5126,
      "count": 200,
      "max": [
        293.74209594726562,
        -3168.51904296875,
        6381.95703125
      ],
      "min": [
        -1494.2149658203125,
        -3958.876953125,
        4727.51513671875
      ],
      "type": "VEC3"
    },
    {
      "bufferView": 1,
      "byteOffset": 259104,
      "componentType": 5126,
      "count": 200,
      "max": [
        0.15863549709320068,
        0.89966660737991333,
        0.40673670172691345
      ],
      "min": [
        -0.15863549709320068,
        -0.89966660737991333,
        -0.40673670172691345
      ],
      "type": "VEC3"
    },
    {
      "bufferView": 0,
      "byteOffset": 243504,
      "componentType": 5125,
      "count": 588,
      "max": [
        199
      ],
      "min": [
        0
      ],
      "type": "SCALAR"
    },
    {
      "bufferView": 1,
      "byteOffset": 261504,
      "componentType": 5126,
      "count": 2400,
      "max": [
        1088.27099609375,
        2985.160888671875,
        6155.06884765625
      ],
      "min": [
        -1205.779052734375,
        -3970.760986328125,
        2177.715087890625
      ],
      "type": "VEC3"
    },
    {
      "bufferView": 1,
      "byteOffset": 290304,
      "componentType": 5126,
      "count": 2400,
      "max": [
        0.99665611982345581,
        0.99089652299880981,
        0.99441629648208618
      ],
      "min": [
        -0.99665611982345581,
        -0.99089652299880981,
        -0.99441629648208618
      ],
      "type": "VEC3"
    },
    {
      "bufferView": 0,
      "byteOffset": 245856,
      "componentType": 5125,
      "count": 14376,
      "max": [
        2399
      ],
      "min": [
        0
      ],
      "type": "SCALAR"
    },
    {
      "bufferView": 1,
      "byteOffset": 319104,
      "componentType": 5126,
      "count": 9804,
      "max": [
        3960.347900390625,
        3920.68798828125,
        7887.7158203125
      ],
      "min": [
        -3909.715087890625,
        -3952.7119140625,
        13.958189964294434
      ],
      "type": "VEC3"
    },
    {
      "bufferView": 1,
      "byteOffset": 436752,
      "componentType": 5126,
      "count": 9804,
      "max": [
        0.99949860572814941,
        0.99992400407791138,
        0.99996459484100342
      ],
      "min": [
        -0.99949860572814941,
        -0.99992400407791138,
        -0.99996459484100342
      ],
      "type": "VEC3"
    },
    {
      "bufferView": 0,
      "byteOffset": 303360,
      "componentType": 5125,
      "count": 58800,
      "max": [
        9803
      ],
      "min": [
        0
      ],
      "type": "SCALAR"
    }
  ],
  "asset": {
    "extras": {
      "author": "farhad.Guli (https://sketchfab.com/farhad.Guli)",
      "license": "CC-BY-4.0 (http://creativecommons.org/licenses/by/4.0/)",
      "source": "https://sketchfab.com/models/a9ac938d26a045f8a47f94a9f9a7bc53",
      "title": "Pokemon ball"
    },
    "generator": "Sketchfab-3.18.5",
    "version": "2.0"
  },
  "bufferViews": [
    {
      "buffer": 0,
      "byteLength": 538560,
      "byteOffset": 0,
      "name": "floatBufferViews",
      "target": 34963
    },
    {
      "buffer": 0,
      "byteLength": 554400,
      "byteOffset": 538560,
      "byteStride": 12,
      "name": "floatBufferViews",
      "target": 34962
    }
  ],
  "buffers": [
    {
      "byteLength": 1092960,
      "uri": "pokeball.bin"
    }
  ],
  "materials": [
    {
      "doubleSided": false,
      "emissiveFactor": [
        0,
        0,
        0
      ],
      "name": "Color_A04",
      "pbrMetallicRoughness": {
        "baseColorFactor": [
          0.94117600000000001,
          0,
          0,
          1
        ],
        "metallicFactor": 0,
        "roughnessFactor": 0.59999999999999998
      }
    },
    {
      "doubleSided": false,
      "emissiveFactor": [
        0,
        0,
        0
      ],
      "name": "Mat_5",
      "pbrMetallicRoughness": {
        "baseColorFactor": [
          0.94117600000000001,
          0.94117600000000001,
          0.94117600000000001,
          1
        ],
        "metallicFactor": 0,
        "roughnessFactor": 0.59999999999999998
      }
    },
    {
      "doubleSided": false,
      "emissiveFactor": [
        0,
        0,
        0
      ],
      "name": "Color_M09",
      "pbrMetallicRoughness": {
        "baseColorFactor": [
          0.13333300000000001,
          0.13333300000000001,
          0.141177,
          1
        ],
        "metallicFactor": 0,
        "roughnessFactor": 0.59999999999999998
      }
    }
  ],
  "meshes": [
    {
      "name": "Material2",
      "primitives": [
        {
          "attributes": {
            "NORMAL": 1,
            "POSITION": 0
          },
          "indices": 2,
          "material": 0,
          "mode": 4
        }
      ]
    },
    {
      "name": "Material2",
      "primitives": [
        {
          "attributes": {
            "NORMAL": 4,
            "POSITION": 3
          },
          "indices": 5,
          "material": 1,
          "mode": 4
        }
      ]
    },
    {
      "name": "Material2",
      "primitives": [
        {
          "attributes": {
            "NORMAL": 7,
            "POSITION": 6
          },
          "indices": 8,
          "material": 1,
          "mode": 4
        }
      ]
    },
    {
      "name": "Material2",
      "primitives": [
        {
          "attributes": {
            "NORMAL": 10,
            "POSITION": 9
          },
          "indices": 11,
          "material": 1,
          "mode": 4
        }
      ]
    },
    {
      "name": "Material2",
      "primitives": [
        {
          "attributes": {
            "NORMAL": 13,
            "POSITION": 12
          },
          "indices": 14,
          "material": 1,
          "mode": 4
        }
      ]
    },
    {
      "name": "Material2",
      "primitives": [
        {
          "attributes": {
            "NORMAL": 16,
            "POSITION": 15
          },
          "indices": 17,
          "material": 1,
          "mode": 4
        }
      ]
    },
    {
      "name": "Material2",
      "primitives": [
        {
          "attributes": {
            "NORMAL": 19,
            "POSITION": 18
          },
          "indices": 20,
          "material": 2,
          "mode": 4
        }
      ]
    }
  ],
  "nodes": [
    {
      "children": [
        1
      ],
      "name": "RootNode (gltf orientation matrix)",
      "rotation": [
        -0.70710678118654746,
        -0,
        -0,
        0.70710678118654757
      ]
    },
    {
      "children": [
        2
      ],
      "name": "RootNode (model correction matrix)"
    },
    {
      "children": [
        3
      ],
      "name": "Collada visual scene group"
    },
    {
      "children": [
        4,
        6
      ],
      "name": "SketchUp"
    },
    {
      "children": [
        5
      ],
      "matrix": [
        0.82355489999999998,
        -0.56723650000000003,
        -6.9388940000000007e-18,
        0,
        0.041642239999999997,
        0.060459199999999998,
        0.99730160000000001,
        0,
        -0.56570600000000004,
        -0.82133270000000003,
        0.073412469999999994,
        0,
        -4075.4070000000002,
        -9589.9539999999997,
        4887.6139999999996,
        1
      ],
      "name": "skp_camera_Last_Saved_SketchUp_View"
    },
    {
      "name": "ID1"
    },
    {
      "children": [
        7
      ],
      "matrix": [
        1,
        0,
        0,
        0,
        0,
        1,
        0,
        0,
        0,
        0,
        1,
        0,
        4432.5900000000001,
        1583.9960000000001,
        76.126400000000004,
        1
      ],
      "name": "instance_0"
    },
    {
      "children": [
        8
      ],
      "name": "_5d50-09c4-3771-04a5"
    },
    {
      "children": [
        9,
        10,
        11,
        12,
        13,
        14,
        15
      ],
      "name": "default_object"
    },
    {
      "mesh": 0,
      "name": "Material2"
    },
    {
      "mesh": 1,
      "name": "Material2"
    },
    {
      "mesh": 2,
      "name": "Material2"
    },
    {
      "mesh": 3,
      "name": "Material2"
    },
    {
      "mesh": 4,
      "name": "Material2"
    },
    {
      "mesh": 5,
      "name": "Material2"
    },
    {
      "mesh": 6,
      "name": "Material2"
    }
  ],
  "scene": 0,
  "scenes": [
    {
      "name": "OSG_Scene",
      "nodes": [
        0
      ]
    }
  ]
}

